<mxfile host="drawio-plugin" modified="2024-09-02T17:10:02.681Z" agent="5.0 (Windows NT 10.0; Win64; x64) AppleWebKit/537.36 (KHTML, like Gecko) Chrome/111.0.0.0 Safari/537.36" etag="m9gVYZqP3iDmf4tpOLlq" version="20.5.3" type="embed"><diagram id="23iRSUPoRavnBvh4doch" name="Page-1"><mxGraphModel dx="707" dy="750" grid="1" gridSize="10" guides="1" tooltips="1" connect="1" arrows="1" fold="1" page="1" pageScale="1" pageWidth="827" pageHeight="1169" math="0" shadow="0"><root><mxCell id="0"/><mxCell id="1" parent="0"/><mxCell id="2" value="END" style="rounded=1;whiteSpace=wrap;html=1;" vertex="1" parent="1"><mxGeometry x="295" y="620" width="120" height="60" as="geometry"/></mxCell><mxCell id="9" value="" style="edgeStyle=orthogonalEdgeStyle;rounded=0;orthogonalLoop=1;jettySize=auto;html=1;" edge="1" parent="1" source="3" target="5"><mxGeometry relative="1" as="geometry"/></mxCell><mxCell id="3" value="START" style="rounded=1;whiteSpace=wrap;html=1;" vertex="1" parent="1"><mxGeometry x="300" y="110" width="120" height="60" as="geometry"/></mxCell><mxCell id="11" value="" style="edgeStyle=orthogonalEdgeStyle;rounded=0;orthogonalLoop=1;jettySize=auto;html=1;" edge="1" parent="1" source="4" target="6"><mxGeometry relative="1" as="geometry"/></mxCell><mxCell id="4" value="b:int&lt;br&gt;&quot;choose a number" style="shape=card;whiteSpace=wrap;html=1;" vertex="1" parent="1"><mxGeometry x="285" y="300" width="140" height="60" as="geometry"/></mxCell><mxCell id="10" value="" style="edgeStyle=orthogonalEdgeStyle;rounded=0;orthogonalLoop=1;jettySize=auto;html=1;" edge="1" parent="1" source="5" target="4"><mxGeometry relative="1" as="geometry"/></mxCell><mxCell id="5" value="a:int&lt;br&gt;&quot;choose a number&quot;" style="shape=card;whiteSpace=wrap;html=1;" vertex="1" parent="1"><mxGeometry x="290" y="210" width="130" height="60" as="geometry"/></mxCell><mxCell id="13" value="yes" style="edgeStyle=orthogonalEdgeStyle;rounded=0;orthogonalLoop=1;jettySize=auto;html=1;entryX=0.5;entryY=0;entryDx=0;entryDy=0;" edge="1" parent="1" source="6" target="8"><mxGeometry relative="1" as="geometry"><mxPoint x="450" y="440" as="targetPoint"/></mxGeometry></mxCell><mxCell id="14" value="no" style="edgeStyle=orthogonalEdgeStyle;rounded=0;orthogonalLoop=1;jettySize=auto;html=1;entryX=0.5;entryY=0;entryDx=0;entryDy=0;" edge="1" parent="1" source="6" target="7"><mxGeometry relative="1" as="geometry"/></mxCell><mxCell id="6" value="a&amp;gt;b" style="rhombus;whiteSpace=wrap;html=1;" vertex="1" parent="1"><mxGeometry x="315" y="400" width="80" height="80" as="geometry"/></mxCell><mxCell id="17" style="edgeStyle=orthogonalEdgeStyle;rounded=0;orthogonalLoop=1;jettySize=auto;html=1;entryX=0.392;entryY=-0.017;entryDx=0;entryDy=0;entryPerimeter=0;" edge="1" parent="1" source="7" target="2"><mxGeometry relative="1" as="geometry"><mxPoint x="320" y="610" as="targetPoint"/></mxGeometry></mxCell><mxCell id="7" value="b" style="shape=document;whiteSpace=wrap;html=1;boundedLbl=1;" vertex="1" parent="1"><mxGeometry x="180" y="500" width="120" height="80" as="geometry"/></mxCell><mxCell id="16" style="edgeStyle=orthogonalEdgeStyle;rounded=0;orthogonalLoop=1;jettySize=auto;html=1;entryX=0.633;entryY=0.033;entryDx=0;entryDy=0;entryPerimeter=0;" edge="1" parent="1" source="8" target="2"><mxGeometry relative="1" as="geometry"><mxPoint x="380" y="570" as="targetPoint"/></mxGeometry></mxCell><mxCell id="8" value="a" style="shape=document;whiteSpace=wrap;html=1;boundedLbl=1;" vertex="1" parent="1"><mxGeometry x="414" y="500" width="120" height="80" as="geometry"/></mxCell></root></mxGraphModel></diagram></mxfile>